/* XPM */
static char *e36b85058d534907f2bf4863deddf88deT35j8MptNvZzdw6[] = {
/* columns rows colors chars-per-pixel */
"32 32 168 2 ",
"   c None",
".  c #6C4E16",
"X  c #6A5014",
"o  c #826413",
"O  c #886515",
"+  c #9E7610",
"@  c #A17910",
"#  c #9C7C27",
"$  c #9E7D2B",
"%  c #887134",
"&  c #B48C0C",
"*  c #BE920E",
"=  c #AC8310",
"-  c #A58327",
";  c #A58328",
":  c #CB9B09",
">  c #C09410",
",  c #DBA300",
"<  c #DEAB07",
"1  c #D4A30A",
"2  c #D8A70A",
"3  c #D9A809",
"4  c #DAA615",
"5  c #E2AA00",
"6  c #E0AE09",
"7  c #E4B607",
"8  c #EDB301",
"9  c #EEBC06",
"0  c #E3B309",
"q  c #ECB60A",
"w  c #EBB80A",
"e  c #F1B700",
"r  c #F9B600",
"t  c #F3BB03",
"y  c #FABE00",
"u  c #F3BC0B",
"i  c #F8BF0C",
"p  c #E1AB15",
"a  c #E7B014",
"s  c #FFBF12",
"d  c #F4BB19",
"f  c #F3B913",
"g  c #C79C22",
"h  c #C99E21",
"j  c #CA9E3A",
"k  c #CCA221",
"l  c #D3A521",
"z  c #D4AD26",
"x  c #EFB92C",
"c  c #E4BB26",
"v  c #F7C305",
"b  c #FEC402",
"n  c #FEC903",
"m  c #F5C20B",
"M  c #FDC50B",
"N  c #FFCC0D",
"B  c #FBD10F",
"V  c #FFC611",
"C  c #FECA12",
"Z  c #FEC61A",
"A  c #FFC919",
"S  c #FBD211",
"D  c #FFDA13",
"F  c #FFC923",
"G  c #F7C12B",
"H  c #FCC329",
"J  c #F5C13E",
"K  c #BB944C",
"L  c #BF9D59",
"P  c #BC9753",
"I  c #A58E63",
"U  c #A7946C",
"Y  c #AC9B77",
"T  c #AA9A7A",
"R  c #B5A27D",
"E  c #C59C46",
"W  c #C89E40",
"Q  c #C29A4F",
"!  c #C19F5B",
"~  c #D2A843",
"^  c #D5AE51",
"/  c #ECBA42",
"(  c #E2B049",
")  c #EDBC4B",
"_  c #F0BE49",
"`  c #F2BF43",
"'  c #C4AD7A",
"]  c #D7B879",
"[  c #E1BF6C",
"{  c #F6C343",
"}  c #F8C348",
"|  c #F6C349",
" . c #EAC669",
".. c #F7CF65",
"X. c #F2CD6B",
"o. c #EDCA73",
"O. c #E7C77A",
"+. c #E8C573",
"@. c #F4CF74",
"#. c #AD9D80",
"$. c #B9AC91",
"%. c #B5AA99",
"&. c #BABAB6",
"*. c #C7B696",
"=. c #C4B79D",
"-. c #C2BFB7",
";. c #DFC283",
":. c #D6C39C",
">. c #D9C59E",
",. c #D9C89F",
"<. c #ECCD8B",
"1. c #F8D883",
"2. c #EBCF92",
"3. c #E2CC99",
"4. c #E6D09E",
"5. c #F7DA93",
"6. c #C6C3B2",
"7. c #D6D1BD",
"8. c #E6D2A0",
"9. c #EADDB7",
"0. c #E6DDBD",
"q. c #EEE0BD",
"w. c #F1E2BE",
"e. c #C9C9C5",
"r. c #CCCDCA",
"t. c #D0CDC5",
"y. c #DED9C3",
"u. c #DFDECF",
"i. c #CACFD4",
"p. c #C7D1DE",
"a. c #CAD3DE",
"s. c #DBDCDB",
"d. c #D8D8D3",
"f. c #E3DECF",
"g. c #E0DBC4",
"h. c #E6E1CD",
"j. c #F3E4C2",
"k. c #EBE4D2",
"l. c #E4E0D1",
"z. c #DDE1E1",
"x. c #DDE5EC",
"c. c #DFE7F0",
"v. c #E4E6E2",
"b. c #E6E9E5",
"n. c #E8EAE6",
"m. c #E2E7EA",
"M. c #E5EAED",
"N. c #EBEDED",
"B. c #ECEEED",
"V. c #EBECEA",
"C. c #EEF0EE",
"Z. c #F2F0E2",
"A. c #F3F5EE",
"S. c #EBEFF0",
"D. c #EBEEF0",
"F. c #ECEFF0",
"G. c #EAEFF4",
"H. c #EAEFF3",
"J. c #EEF1F0",
"K. c #EFF2F2",
"L. c #EDF1F3",
"P. c #EAF1F5",
"I. c #EFF3F5",
"U. c #ECF1F4",
"Y. c #EDF4FC",
"T. c #F2F4F3",
"R. c #F4FBFF",
"E. c #F9FDFF",
/* pixels */
"                                                                ",
"  c B D D B B S S B B B B B B B S B B S B B S S S S S D D D z   ",
"  p i & 3 v n n N M A M C C M C C M C C C C C n b n n < & w l   ",
"  a : X + 9 n M M b b b b b b b b b b b b b b M M n 9 + . : l   ",
"  4 8 * 3 v M M b b F A Z Z A Z Z Z Z Z A Z b b M M v 1 * w k   ",
"  4 n v v M b b @.q.j.j.j.j.j.j.j.j.j.j.j.j.q.o.y b M v m M h   ",
"  4 M n M M b @.k.P.L.L.C.S.S.S.C.S.S.L.S.S.P.l.o.b M M n v h   ",
"  4 b M M y X.k.G.N.V.N.L.I.I.I.I.I.I.L.S.N.N.G.f. .b M M M h   ",
"  4 n M b b 4.M.L.V.V.V.s.e.r.r.r.r.e.s.V.N.V.L.m.,.t b M n g   ",
"  4 n M b y 4.M.B.V.L.b.=.K ! L L L K *.b.N.V.A.m.>.e n M M g   ",
"  4 M N b v 4.M.F.n.N.v.] r y r t t r  .v.S.V.C.m.>.e b M v h   ",
"  4 n M b y 4.M.T.B.P.b.;.b F Z A F b O.v.S.V.L.m.>.e b M M h   ",
"  4 v M n v 3.z.m.v.m.s.] y Z V H H s O.v.N.V.C.m.>.t b M M k   ",
"  4 n b b b ^ T T Y T T ~ b Z ..5.5.1.9.V.N.V.L.m.>.e n M M g   ",
"  4 n b b b y e 8 8 8 8 y F X.b.P.H.P.G.N.V.V.L.m.:.e b M M g   ",
"  4 M n b b M A A C A C Z @.b.F.V.B.V.B.C.V.T.S.-.j v C b v k   ",
"  4 n n b b b y b y M b | y.P.V.B.V.F.M.x.m.m.&.E t V b b m h   ",
"  4 n b b b b b b b M b | y.I.V.V.T.s.#.I U I j i V b b b M h   ",
"  4 M n b b b b b b M b { y.G.V.n.I.t.( r d f i M b b b M v h   ",
"  4 b b b b b b b b M b } h.R.T.T.E.d._ b Z V M b b b b n M h   ",
"  4 M b b b b b b b M y x 6.p.i.i.a.&./ b M M b b b b b b M g   ",
"  4 n n b b b b b b b b Z ~ L Q Q Q E s b b b b b b b b M M k   ",
"  4 M b b b y b b b b b H o.2.<.<.2.+.x b b b b b b b b b M h   ",
"  4 n n b b b b b b M b { 0.A.Z.Z.T.g.` b M b b b b b b b M h   ",
"  4 M b b b b b b b M y } f.Y.I.I.R.d.) b M b b b b b b b M h   ",
"  4 n n n b b b b b M b { 7.x.z.z.m.e.` b M M b b b b n n M h   ",
"  4 n 7 9 b b b b b b b x ' %.$.$.%.#.x b b b b b b b t 7 m h   ",
"  p < o & t b b b b b M b 8 , , , , 5 y b b b b y b t & o 3 l   ",
"  p 1 O = u n b n b M n b N N N N B N n n b b n b n 9 = O 1 l   ",
"  4 i 0 u m m m m m m m m m m m i u m m m m m m m m m q 6 M g   ",
"  # # - ; # $ # # # # # # # # # # # $ # $ $ # # # # # ; ; # %   ",
"                                                                "
};
