/* XPM */
static char *_629470850119[] = {
/* columns rows colors chars-per-pixel */
"32 32 9 1 ",
"  c black",
". c gray4",
"X c #0B0B0B",
"o c #151515",
"O c #202020",
"+ c #D41F00",
"@ c #FCB5A8",
"# c #CACACA",
"$ c None",
/* pixels */
"$$$$$$$$$$$$$$$$$$$$$$$$$$$$$$$$",
"$$$$$$$$$$$$$$$$$$$$$$$$$$$$$$$$",
"$$$$$$$$$$$$$$$$$$$$$$$$$$$$$$$$",
"$$$$$$$$$$$$$$$$$$$$$$$$$$$$$$$$",
"$$$$$$$$$$$$$$$$$$$$$$$$$$$$$$$$",
"$$$$$$$$$$$$$$$$$$$$$$$$$$$$$$$$",
"$$$$$$$$$$$$$$$$$$$$$$$$$$$$$$$$",
"$$$$$$$$$$$$$$$$$$$$$$$$$$$$$$$$",
"$$$$$$$$$$$$$    X$$$$$$$$$$$$$$",
"$$$$$$$$$$$$o+++++ooO$$$$$$$$$$$",
"$$$$$$$$$$$O+++++++++o$$$$$$$$$$",
"$$$$$$$$$$$oX @@ @  X$$$$$$$$$$$",
"$$$$$$$$$$X@@  @ @@@#o$$$$$$$$$$",
"$$$$$$$$$$X@@  @@ @@@o$$$$$$$$$$",
"$$$$$$$$$$$X @@@    .$$$$$$$$$$$",
"$$$$$$$$$$$X  @@@@@ $$$$$$$$$$$$",
"$$$$$$$$$oX+++  ++ XO$$$$$$$$$$$",
"$$$$$$$$o#@++++  ++X+O$$$$$$$$$$",
"$$$$$$$$o@@@++      +@o$$$$$$$$$",
"$$$$$$$$$X@@    @  @ @X$$$$$$$$$",
"$$$$$$$$$$         ++X$$$$$$$$$$",
"$$$$$$$$$o++      +++X$$$$$$$$$$",
"$$$$$$$$$o+++ $$X+++ $$$$$$$$$$$",
"$$$$$$$$$$X  $$$$X  $$$$$$$$$$$$",
"$$$$$$$$$$$$$$$$$$$$$$$$$$$$$$$$",
"$$$$$$$$$$$$$$$$$$$$$$$$$$$$$$$$",
"$$$$$$$$$$$$$$$$$$$$$$$$$$$$$$$$",
"$$$$$$$$$$$$$$$$$$$$$$$$$$$$$$$$",
"$$$$$$$$$$$$$$$$$$$$$$$$$$$$$$$$",
"$$$$$$$$$$$$$$$$$$$$$$$$$$$$$$$$",
"$$$$$$$$$$$$$$$$$$$$$$$$$$$$$$$$",
"$$$$$$$$$$$$$$$$$$$$$$$$$$$$$$$$",
};
