/* XPM */
static char *dbab7d33fe744936b4998c7c89f53904t21tvIyCVx5hfZIb[] = {
/* columns rows colors chars-per-pixel */
"32 32 107 2 ",
"   c black",
".  c #001500",
"X  c #022100",
"o  c #012E01",
"O  c #0B2F08",
"+  c #033300",
"@  c #0A3307",
"#  c #0C300A",
"$  c #0D3A09",
"%  c #272627",
"&  c #2C2B2C",
"*  c #2F302F",
"=  c #323431",
"-  c #363936",
";  c #094206",
":  c #014B00",
">  c #11430E",
",  c #104F0C",
"<  c #035000",
"1  c #095B04",
"2  c #154C12",
"3  c #165712",
"4  c #175913",
"5  c #185B13",
"6  c #056E00",
"7  c #067000",
"8  c #097603",
"9  c #0A7904",
"0  c #176712",
"q  c #196414",
"w  c #1B6A15",
"e  c #1F7019",
"r  c #21741B",
"t  c #666566",
"y  c #676668",
"u  c #6C696C",
"i  c #7F7D7F",
"p  c #0E8207",
"a  c #0F8308",
"s  c #11860A",
"d  c #138C0B",
"f  c #15910D",
"g  c #179610",
"h  c #1A9A12",
"j  c #22911B",
"k  c #24981C",
"l  c #1EA416",
"z  c #20A817",
"x  c #20A718",
"c  c #22AC19",
"v  c #25B31B",
"b  c #26B91D",
"n  c #28BB1F",
"m  c #2BA423",
"M  c #2EAA25",
"N  c #2ABE21",
"B  c #2CC322",
"V  c #2FC924",
"C  c #32CD27",
"Z  c #32D227",
"A  c #34D429",
"S  c #37DA2C",
"D  c #38DC2D",
"F  c #37E12C",
"G  c #3BE22F",
"H  c #3BE430",
"J  c #3EEA32",
"K  c #43F236",
"L  c #44F737",
"P  c #44F738",
"I  c #45F938",
"U  c #47FA3A",
"Y  c #46FC39",
"T  c #47FE3B",
"R  c #48FD3B",
"E  c #49FF3C",
"W  c #4BFF3D",
"Q  c #698568",
"!  c #6EAA6A",
"~  c #70AE6C",
"^  c #7AA676",
"/  c #78C174",
"(  c #84DA7E",
")  c #7F7C80",
"_  c #807C80",
"`  c #807D80",
"'  c #989798",
"]  c #9A9A9A",
"[  c gray62",
"{  c #A2A2A2",
"}  c #A5A4A5",
"|  c #A8A6A8",
" . c #8BEB85",
".. c #94FC8C",
"X. c gray89",
"o. c #E4E3E4",
"O. c #E4E4E4",
"+. c #E7E7E7",
"@. c #E8E7E8",
"#. c #EFEFEF",
"$. c gray94",
"%. c #F6F6F6",
"&. c #a0a1f8",
"*. c #F8F7F8",
"=. c #F8F8F8",
"-. c gray98",
";. c #FBFBFB",
/* pixels */
"&.&.&.&.&.&.&.&.&.&.&.&.&.&.&.&.&.&.&.&.&.&.&.&.&.&.&.&.&.&.&.&.",
"&.- $ 4 4 4 5 5 3 3 4 4 4 4 4 4 4 4 4 4 4 4 4 4 4 4 3 3 5 $ * &.",
"&.- j D S D H R T E E J D D D D D D D D D D D D D D D D D k = &.",
"&.- 1 d a 8 d P E E R v 8 d s 8 9 8 8 8 8 8 9 s 9 s d d a < = &.",
"&.- m P n 6 d P E E W c l K D 9 6 6 7 6 7 6 s A f C J K N : = &.",
"&.- M W B 6 d P R R R v l W H 9 6 7 6 6 7 7 8 g Z l S R V : * &.",
"&.- M W N 6 d L R R R v l W H 9 6 7 8 6 7 6 a B l V K E B : = &.",
"&.- M W N 6 d P W R R c c W H 9 7 7 7 7 7 7 9 c B v H R B : = &.",
"&.- M W N 6 d P R R W c l W H 9 7 7 7 7 7 6 9 c N v H W B : = &.",
"&.- M W B 6 d P R R R c c W H 9 6 7 6 7 7 6 s B l B K W V : = &.",
"&.- M W B 6 d P W R W c l R H 9 6 7 6 6 8 6 8 h Z l S R B : = &.",
"&.- M W N 6 d I R R R c l W H 9 7 6 7 7 6 6 d A h C I R B : = &.",
"&.- M W N 6 d P E R W c l W H 9 7 7 7 7 7 6 8 d A l A W V : * &.",
"&.- M W N 7 d K I I R c l R H 8 6 8 6 6 6 6 s C h C K R B : = &.",
"&.= O 2 $ . O > 2 2 2 @ $ 2 > X . X X . X . O > o > 2 2 $ . * &.",
"&.} &                                                     % { &.",
"&.&.[ = # r w + + w r r r q + + + + + + , 5 ; r r ; + . & ] &.&.",
"&.&.&.u w R H 8 9 H W R W Z 8 7 7 7 8 d v B b I I f 7 o y &.&.&.",
"&.&.&.u w W H 9 8 H R W W A 7 7 7 7 7 c N x H R P f 6 + y &.&.&.",
"&.&.&.u w R H 8 8 D W R W Z 7 7 7 7 7 9 v C l P I f 6 o y &.&.&.",
"&.&.&.u w W H 9 8 H R R W A 7 7 7 7 7 v N x J R I f 6 + y &.&.&.",
"&.&.&.u w R H 8 8 G R R W Z 8 7 7 7 7 9 c C l P I f 6 o y &.&.&.",
"&.&.&.u w R H 9 8 H W R R A 6 6 7 7 6 x N c D U L f 6 o y &.&.&.",
"&.&.&.u w W H 8 8 G R R W Z 8 6 7 7 7 f v n N I I d 6 o y &.&.&.",
"&.&.&.u w R H 9 8 G R R W Z 7 7 7 7 7 d b N B I I f 6 o y &.&.&.",
"&.&.&.u w W H 9 8 H W R R Z 7 7 7 7 8 9 v B z P I f 6 o y &.&.&.",
"&.&.&.u w W G 9 8 D R R R A 7 7 7 7 7 c N l J T I d 6 o y &.&.&.",
"&.&.&.u w R G 9 8 H R R W A 7 7 7 7 8 9 v V l P I f 6 + t &.&.&.",
"&.&.&.u w R G 8 8 H W R W A 7 7 7 7 7 c N l H T I f 6 o y &.&.&.",
"&.&.&.u w R G 9 9 D R W W Z 8 7 7 7 7 s b N v I I f 6 + y &.&.&.",
"&.&.&.y 0 T F 8 8 F T T Y A 8 6 6 6 6 l b b V J J f 7 + t &.&.&.",
"&.&.&..                                                 . &.&.&."
};
